# Blender v2.79 (sub 0) OBJ File: ''
# www.blender.org
mtllib bullet.mtl
o Cone
v 0.000000 2.175900 -1.000000
v 0.000000 4.175900 0.000000
v 0.866025 2.175900 -0.500000
v 0.866025 2.175900 0.500000
v -0.000000 2.175900 1.000000
v -0.866025 2.175900 0.500000
v -0.866025 2.175900 -0.500000
v 0.000000 -0.024487 -1.000000
v 0.866025 -0.024487 -0.500000
v 0.866025 -0.024487 0.500000
v -0.000000 -0.024487 1.000000
v -0.866025 -0.024487 0.500000
v -0.866025 -0.024487 -0.500000
v -0.433013 3.480365 -0.250000
v -0.433013 3.480365 0.250000
v -0.000000 3.480365 0.500000
v 0.433013 3.480365 0.250000
v 0.433013 3.480365 -0.250000
v 0.000000 3.480365 -0.500000
vn 0.4680 0.3518 -0.8107
vn 0.9361 0.3518 0.0000
vn 0.4680 0.3518 0.8107
vn -0.4680 0.3518 0.8107
vn -0.9361 0.3518 0.0000
vn -0.4680 0.3518 -0.8107
vn 0.0000 -1.0000 0.0000
vn -1.0000 0.0000 0.0000
vn -0.5000 0.0000 -0.8660
vn 0.5000 0.0000 -0.8660
vn 1.0000 0.0000 0.0000
vn 0.5000 0.0000 0.8660
vn -0.5000 0.0000 0.8660
usemtl None
s off
f 1//1 19//1 2//1 18//1 3//1
f 3//2 18//2 2//2 17//2 4//2
f 4//3 17//3 2//3 16//3 5//3
f 5//4 16//4 2//4 15//4 6//4
f 6//5 15//5 2//5 14//5 7//5
f 7//6 14//6 2//6 19//6 1//6
f 1//7 3//7 4//7 5//7 6//7 7//7
f 12//8 6//8 7//8 13//8
f 8//7 9//7 10//7 11//7 12//7 13//7
f 13//9 7//9 1//9 8//9
f 8//10 1//10 3//10 9//10
f 9//11 3//11 4//11 10//11
f 10//12 4//12 5//12 11//12
f 11//13 5//13 6//13 12//13
