# Blender v2.79 (sub 0) OBJ File: ''
# www.blender.org
mtllib tree.mtl
o Cylinder
v -0.553519 2.914301 0.381788
v 0.893229 9.026574 2.610231
v -0.229162 2.632856 0.603128
v 1.231804 8.864199 2.794933
v -0.432934 2.511660 0.932804
v 1.005674 8.897844 2.976291
v -0.605027 3.373701 0.515187
v 0.998247 9.369748 2.957504
v 0.285561 5.708648 1.999348
v -1.822418 8.736866 5.288433
v 1.734978 9.369355 5.712814
v -0.618048 12.143950 5.708515
v -3.206659 11.418934 3.257228
v -2.456849 8.073519 1.588840
v 0.600672 6.929543 3.264223
v 2.541006 12.144793 3.561368
v 2.271302 8.915286 2.908223
v -0.972036 13.423054 1.870125
v 2.559209 12.550812 -0.860569
v -1.302632 13.117964 -1.807700
v -3.520666 10.736633 0.546526
v 2.727980 9.818997 2.078984
v 1.008204 10.778683 -4.114338
v -2.749328 9.657442 -3.244685
v -2.580557 6.925628 -0.305133
v 1.281283 6.358476 0.641999
v 3.499318 8.739807 -1.712227
v 0.218437 6.951612 -3.185684
v -0.327650 -0.199193 -0.586917
v -0.924148 9.283686 -0.594304
v 0.673754 -0.160051 -0.300278
v 0.906998 9.346942 -0.159770
v 0.397816 -0.104145 0.339381
v 0.590133 9.427132 1.050812
v -0.692998 -0.054788 1.018413
v -0.646800 9.462797 1.298291
v 0.581301 4.677825 1.011173
v -0.725101 4.667299 0.770284
v -0.327650 -0.199193 -0.586917
v -0.924148 9.283686 -0.594304
v 0.397816 -0.104145 0.339381
v 0.492509 4.702253 0.982629
vt 0.693485 0.093673
vt 0.699865 0.124112
vt 0.700384 0.122706
vt 0.670694 0.125017
vt 0.700036 0.123339
vt 0.701365 0.114546
vt 0.708196 0.143412
vt 0.411690 0.351401
vt 0.431867 0.351401
vt 0.425958 0.359951
vt 0.416568 0.364420
vt 0.700117 0.124001
vt 0.707106 0.102337
vt 0.665043 0.033345
vt 0.708196 0.000214
vt 0.000214 0.481584
vt 0.118154 0.452199
vt 0.044620 0.529770
vt 0.129416 0.396218
vt 0.540329 0.650683
vt 0.486529 0.624929
vt 0.537087 0.501357
vt 0.604960 0.504623
vt 0.707511 0.650683
vt 0.203986 0.439022
vt 0.220665 0.478427
vt 0.202761 0.687266
vt 0.435344 0.572129
vt 0.435771 0.423967
vt 0.636869 0.441552
vt 0.794438 0.563278
vt 0.547096 0.396218
vt 0.264714 0.396218
vt 0.266529 0.448611
vt 0.180488 0.395791
vt 0.147798 0.149906
vt 0.327651 0.280311
vt 0.664616 0.000214
vt 0.653472 0.141805
vt 0.581297 0.007793
vt 0.000214 0.089706
vt 0.113812 0.088822
vt 0.288785 0.106108
vt 0.617803 0.136050
vt 0.664615 0.303037
vt 0.489291 0.053820
vt 0.000214 0.043741
vt 0.188272 0.000214
vt 0.527120 0.267195
vt 0.328078 0.196621
vt 0.019839 0.784683
vt 0.640646 0.786806
vt 0.850296 0.838860
vt 0.070147 0.843967
vt 0.950647 0.972618
vt 0.043476 0.972319
vt 0.017270 0.865629
vt 0.949857 0.678701
vt 0.448763 0.687521
vt 0.000214 0.699803
vt 0.457554 0.345168
vt 0.411690 0.303464
vt 0.485956 0.303464
vt 0.489159 0.350974
vt 0.411263 0.362565
vt 0.328078 0.386328
vt 0.384018 0.312363
vt 0.328078 0.303464
vn -0.4439 -0.2503 -0.8604
vn 0.0661 0.5393 -0.8395
vn 0.9878 0.0443 -0.1493
vn 0.3670 -0.8834 -0.2912
vn 0.0898 0.1924 0.9772
vn -0.1143 -0.2915 0.9497
vn -0.3691 -0.6284 0.6847
vn 0.0834 0.9795 -0.1833
vn -0.9681 0.1923 -0.1603
vn -0.5393 -0.4542 0.7091
vn 0.5589 -0.2541 0.7893
vn -0.1476 0.5775 0.8029
vn 0.1849 -0.8901 0.4165
vn -0.8974 0.3283 0.2949
vn -0.7832 -0.5391 0.3096
vn 0.8947 -0.3901 0.2173
vn 0.7628 0.5495 0.3409
vn -0.2289 0.9680 0.1029
vn 0.6895 0.6914 -0.2157
vn -0.6756 -0.7364 -0.0351
vn 0.4023 -0.9111 0.0892
vn -0.9795 0.1993 -0.0294
vn 0.9709 -0.1431 0.1920
vn -0.3375 0.8449 -0.4149
vn 0.9188 -0.2614 -0.2956
vn 0.2667 0.2724 -0.9245
vn -0.7169 -0.0211 -0.6968
vn 0.0600 -0.7295 -0.6814
vn -0.4127 -0.6110 -0.6754
vn -0.5666 0.5296 -0.6312
vn 0.7096 0.5527 -0.4370
vn 0.7124 -0.5593 -0.4238
vn 0.5247 0.6217 0.5815
vn 0.6543 -0.0517 0.7544
vn 0.4837 -0.6839 0.5461
vn -0.4911 0.5836 0.6467
vn -0.7349 -0.0793 0.6734
vn -0.6681 -0.4243 0.6112
usemtl Material.002
s 1
f 1/1/1 2/2/2 4/3/3 3/4/4
f 3/4/4 4/3/3 6/5/5 9/6/6 5/7/7
f 4/8/3 2/9/2 8/10/8 6/11/5
f 5/7/7 9/6/6 6/5/5 8/12/8 7/13/9
f 7/13/9 8/12/8 2/2/2 1/1/1
f 1/1/1 3/14/4 5/15/7 7/13/9
f 10/16/10 11/17/11 12/18/12
f 11/17/11 10/16/10 15/19/13
f 10/20/10 12/21/12 13/22/14
f 10/20/10 13/22/14 14/23/15
f 10/20/10 14/23/15 15/24/13
f 11/17/11 15/19/13 17/25/16
f 12/18/12 11/17/11 16/26/17
f 18/27/18 16/26/17 19/28/19
f 13/22/14 12/21/12 18/29/18
f 25/30/20 26/31/21 15/24/13
f 11/17/11 17/25/16 16/26/17
f 12/18/12 16/26/17 18/27/18
f 13/22/14 18/29/18 21/32/22
f 17/25/16 15/19/13 26/33/21
f 15/24/13 14/23/15 25/30/20
f 16/26/17 17/25/16 22/34/23
f 16/26/17 22/34/23 19/28/19
f 14/23/15 13/22/14 21/32/22
f 17/25/16 26/33/21 22/34/23
f 14/23/15 21/32/22 25/30/20
f 18/35/18 19/36/19 20/37/24
f 18/38/18 20/39/24 21/40/22
f 19/36/19 22/41/23 27/42/25
f 20/37/24 19/36/19 23/43/26
f 21/40/22 20/39/24 24/44/27
f 19/36/19 27/42/25 23/43/26
f 20/39/24 23/45/26 24/44/27
f 21/40/22 24/44/27 25/46/20
f 22/41/23 26/47/21 27/42/25
f 23/43/26 27/42/25 28/48/28
f 24/44/27 23/45/26 28/49/28
f 25/46/20 24/44/27 28/49/28
f 26/50/21 25/46/20 28/49/28
f 27/42/25 26/47/21 28/48/28
f 29/51/29 30/52/30 32/53/31 31/54/32
f 31/54/32 32/53/31 34/55/33 37/56/34 33/57/35
f 33/57/35 37/56/34 34/55/33 36/58/36 38/59/37 35/60/38
f 30/52/30 29/51/29 38/59/37
f 38/59/37 29/51/29 35/60/38
f 36/58/36 30/52/30 38/59/37
f 33/61/35 35/62/38 29/63/29
f 31/64/32 33/61/35 29/63/29
f 32/65/31 30/66/30 34/67/33
f 36/68/36 34/67/33 30/66/30
l 39 29
l 30 40
l 37 42
l 33 41
